<?xml version="1.0" standalone="no"?>
<!DOCTYPE svg PUBLIC "-//W3C//DTD SVG 20010904//EN"
 "http://www.w3.org/TR/2001/REC-SVG-20010904/DTD/svg10.dtd">
<svg version="1.0" xmlns="http://www.w3.org/2000/svg"
 width="348.000000pt" height="348.000000pt" viewBox="0 0 348.000000 348.000000"
 preserveAspectRatio="xMidYMid meet">

<g transform="translate(0.000000,348.000000) scale(0.100000,-0.100000)"
fill="#000000" stroke="none">
<path d="M1550 3469 c-815 -92 -1450 -732 -1539 -1551 -79 -718 316 -1425 973
-1743 1083 -524 2354 185 2485 1387 70 636 -234 1275 -773 1631 -334 219 -753
320 -1146 276z m-170 -274 l34 -35 37 36 c24 23 43 34 53 31 25 -10 19 -30
-19 -67 l-35 -34 36 -37 c23 -24 34 -43 31 -53 -10 -25 -30 -19 -67 19 l-34
35 -37 -36 c-24 -23 -43 -34 -53 -31 -25 10 -19 30 19 67 l35 34 -36 37 c-23
24 -34 43 -31 53 10 25 30 19 67 -19z m1281 -250 c64 -33 87 -117 51 -184 -49
-92 -176 -90 -232 2 -68 112 63 243 181 182z m-1136 -684 l131 -22 114 57 c63
32 122 57 130 56 8 0 99 -23 202 -51 153 -41 212 -52 325 -60 76 -6 152 -11
170 -11 28 0 39 -9 88 -71 44 -56 53 -74 44 -85 -10 -12 -172 -14 -988 -14
-681 0 -980 3 -988 11 -7 7 -6 27 4 69 l15 58 78 21 c43 12 134 48 202 80
l123 58 110 -37 c61 -21 169 -48 240 -59z m1622 -313 l23 -21 23 21 c13 12 28
22 34 22 22 0 21 -29 -3 -51 l-24 -23 20 -21 c11 -12 20 -29 20 -38 0 -23 -33
-21 -55 3 l-18 20 -23 -21 c-13 -12 -30 -19 -38 -16 -21 8 -20 20 4 42 20 18
27 45 12 45 -12 0 -33 40 -27 50 10 16 27 12 52 -12z m-1388 -113 c119 -19
239 -39 266 -44 164 -32 195 -33 325 -12 69 12 134 21 146 21 22 0 222 -139
236 -164 6 -10 3 -18 -9 -24 -27 -14 -1949 -12 -1968 2 -22 16 -10 28 103 95
l102 62 88 -17 87 -16 175 65 c96 36 188 66 204 66 15 1 125 -15 245 -34z
m-1444 -385 l22 -20 18 20 c20 22 55 27 55 8 0 -6 -10 -22 -22 -35 l-21 -23
21 -23 c12 -13 22 -29 22 -35 0 -24 -31 -25 -56 -2 l-24 23 -24 -22 c-40 -38
-64 -6 -26 34 l20 22 -20 18 c-24 22 -26 55 -3 55 9 0 26 -9 38 -20z m1557
-52 c69 -47 108 -56 254 -57 68 -1 121 -9 210 -32 l118 -31 80 16 c45 9 88 16
97 16 24 0 112 -160 97 -177 -14 -18 -1958 -19 -1975 -2 -9 9 -4 27 19 73 17
34 36 64 42 68 6 4 40 8 74 8 60 0 68 3 135 50 39 28 77 50 84 50 7 0 40 -18
74 -40 l62 -40 151 0 151 0 120 69 c66 39 126 70 133 70 7 1 40 -18 74 -41z
m-699 -889 c61 -66 17 -169 -73 -169 -85 0 -132 97 -79 164 42 54 104 56 152
5z"/>
<path d="M2573 2913 c-32 -6 -63 -50 -63 -90 0 -68 81 -107 138 -67 56 39 47
124 -14 150 -18 8 -35 13 -36 13 -2 -1 -13 -4 -25 -6z"/>
<path d="M1060 480 c-32 -32 -24 -75 17 -91 38 -14 83 14 83 54 0 23 -35 57
-60 57 -11 0 -29 -9 -40 -20z"/>
</g>
</svg>
