<?xml version="1.0" encoding="UTF-8"?>
<!DOCTYPE svg PUBLIC "-//W3C//DTD SVG 1.1//EN" "http://www.w3.org/Graphics/SVG/1.1/DTD/svg11.dtd">
<svg xmlns="http://www.w3.org/2000/svg" version="1.1" width="348px" height="348px" style="shape-rendering:geometricPrecision; text-rendering:geometricPrecision; image-rendering:optimizeQuality; fill-rule:evenodd; clip-rule:evenodd" xmlns:xlink="http://www.w3.org/1999/xlink">
<g><path style="opacity:1" fill="#fefefe" d="M -0.5,-0.5 C 51.5,-0.5 103.5,-0.5 155.5,-0.5C 96.5872,7.88632 51.7538,37.553 21,88.5C 9.63053,109.765 2.46387,132.099 -0.5,155.5C -0.5,103.5 -0.5,51.5 -0.5,-0.5 Z"/></g>
<g><path style="opacity:1" fill="#e3e3f7" d="M 155.5,-0.5 C 164.5,-0.5 173.5,-0.5 182.5,-0.5C 244.252,4.54018 291.752,33.5402 325,86.5C 336.899,108.357 344.399,131.357 347.5,155.5C 347.5,167.5 347.5,179.5 347.5,191.5C 331.843,279.823 279.843,331.823 191.5,347.5C 179.833,347.5 168.167,347.5 156.5,347.5C 79.3796,335.532 28.8796,292.532 5,218.5C 4.29273,211.96 2.9594,205.626 1,199.5C 0.827935,192.987 0.327935,186.653 -0.5,180.5C -0.5,172.167 -0.5,163.833 -0.5,155.5C 2.46387,132.099 9.63053,109.765 21,88.5C 51.7538,37.553 96.5872,7.88632 155.5,-0.5 Z"/></g>
<g><path style="opacity:1" fill="#fefefe" d="M 182.5,-0.5 C 237.5,-0.5 292.5,-0.5 347.5,-0.5C 347.5,51.5 347.5,103.5 347.5,155.5C 344.399,131.357 336.899,108.357 325,86.5C 291.752,33.5402 244.252,4.54018 182.5,-0.5 Z"/></g>
<g><path style="opacity:1" fill="#8f6d9e" d="M 151.5,60.5 C 164.722,69.9289 173.222,82.5956 177,98.5C 177.667,113.167 177.667,127.833 177,142.5C 171.796,164.043 158.963,179.21 138.5,188C 120.192,195.024 101.859,195.191 83.5,188.5C 82.2614,186.299 80.9281,184.132 79.5,182C 76.8723,180.374 74.539,178.374 72.5,176C 70.8988,175.727 69.3988,175.227 68,174.5C 62.2525,164.111 54.7525,155.944 45.5,150C 45.8881,148.475 45.8881,146.808 45.5,145C 47.9316,143.913 47.5983,143.413 44.5,143.5C 44.6602,141.801 44.4935,140.134 44,138.5C 43.6174,139.056 43.1174,139.389 42.5,139.5C 42.3334,125.496 42.5001,111.496 43,97.5C 48.5675,76.435 61.4009,61.7684 81.5,53.5C 105.955,45.3084 129.288,47.6418 151.5,60.5 Z"/></g>
<g><path style="opacity:1" fill="#e0d7f4" d="M 151.5,60.5 C 129.288,47.6418 105.955,45.3084 81.5,53.5C 84.9243,51.7613 88.4243,50.0946 92,48.5C 92.3333,48.8333 92.6667,49.1667 93,49.5C 112.141,45.366 130.308,47.866 147.5,57C 149.093,57.9487 150.426,59.1154 151.5,60.5 Z"/></g>
<g><path style="opacity:1" fill="#f182a4" d="M 154.5,75.5 C 155.5,75.8333 156.167,76.5 156.5,77.5C 158.977,81.7785 161.477,86.1118 164,90.5C 170.676,107.858 167.51,124.025 154.5,139C 155.833,139.667 155.833,140.333 154.5,141C 155.078,142.417 156.078,143.25 157.5,143.5C 159.379,144.341 161.379,144.675 163.5,144.5C 161.337,146.828 159.17,146.828 157,144.5C 154.91,146.416 153.077,148.416 151.5,150.5C 149.937,149.055 148.604,147.389 147.5,145.5C 147.631,144.624 147.298,143.957 146.5,143.5C 144.899,142.835 143.399,142.501 142,142.5C 140.634,144.37 139.467,146.37 138.5,148.5C 139.513,150.527 140.513,152.527 141.5,154.5C 138.919,155.575 136.753,157.242 135,159.5C 134.23,158.402 133.397,158.402 132.5,159.5C 131.991,156.808 130.991,154.308 129.5,152C 127.613,151.22 125.946,151.387 124.5,152.5C 123.035,153.406 122.035,154.739 121.5,156.5C 122.642,159.399 123.308,162.399 123.5,165.5C 122.596,164.791 122.263,163.791 122.5,162.5C 120.076,162.192 117.743,162.526 115.5,163.5C 115.121,165.213 114.121,166.213 112.5,166.5C 114.353,164.309 114.687,161.975 113.5,159.5C 112.685,158.163 111.518,157.163 110,156.5C 105.936,156.734 101.602,156.734 97,156.5C 96.6667,155.833 96.3333,155.167 96,154.5C 95,154.833 94,155.167 93,155.5C 92.6667,154.833 92.3333,154.167 92,153.5C 90.1918,153.888 88.5252,153.888 87,153.5C 79.2284,150.037 72.0617,145.704 65.5,140.5C 64.5,140.167 63.8333,139.5 63.5,138.5C 58.9722,132.111 55.4722,125.111 53,117.5C 52.3333,111.167 52.3333,104.833 53,98.5C 54.8886,92.9885 57.0553,87.6552 59.5,82.5C 60.9188,79.8996 62.5854,77.3996 64.5,75C 67.7916,71.8623 71.4582,69.3623 75.5,67.5C 76.1174,67.6107 76.6174,67.944 77,68.5C 79.4042,66.0452 82.2375,64.2118 85.5,63C 104.472,56.3204 123.472,57.6537 142.5,67C 146.669,69.6808 150.669,72.5141 154.5,75.5 Z"/></g>
<g><path style="opacity:1" fill="#d780a7" d="M 154.5,75.5 C 150.669,72.5141 146.669,69.6808 142.5,67C 123.472,57.6537 104.472,56.3204 85.5,63C 82.2375,64.2118 79.4042,66.0452 77,68.5C 76.6174,67.944 76.1174,67.6107 75.5,67.5C 81.0122,63.0819 87.3455,60.2486 94.5,59C 111.724,55.2783 128.057,57.6116 143.5,66C 147.949,68.2843 151.616,71.4509 154.5,75.5 Z"/></g>
<g><path style="opacity:1" fill="#d780a7" d="M 119.5,78.5 C 123.3,78.5157 127.3,78.6824 131.5,79C 136.824,84.3996 136.158,89.0662 129.5,93C 122.527,94.6781 117.527,92.3448 114.5,86C 115.805,83.2132 117.472,80.7132 119.5,78.5 Z"/></g>
<g><path style="opacity:1" fill="#926b9c" d="M 91.5,79.5 C 97.1934,78.8419 101.193,81.0086 103.5,86C 100.447,91.798 95.7803,93.4646 89.5,91C 85.0569,86.1538 85.7235,82.3205 91.5,79.5 Z"/></g>
<g><path style="opacity:1" fill="#916b9c" d="M 122.5,79.5 C 129.737,78.5861 133.237,81.5861 133,88.5C 128.305,93.1733 123.305,93.5066 118,89.5C 115.933,84.6296 117.433,81.2963 122.5,79.5 Z"/></g>
<g><path style="opacity:1" fill="#d780a7" d="M 156.5,77.5 C 168.421,90.0555 171.921,104.722 167,121.5C 164.954,127.925 161.621,133.591 157,138.5C 156.616,140.197 156.782,141.863 157.5,143.5C 156.078,143.25 155.078,142.417 154.5,141C 155.833,140.333 155.833,139.667 154.5,139C 167.51,124.025 170.676,107.858 164,90.5C 161.477,86.1118 158.977,81.7785 156.5,77.5 Z"/></g>
<g><path style="opacity:1" fill="#d67fa7" d="M 59.5,82.5 C 57.0553,87.6552 54.8886,92.9885 53,98.5C 52.3333,104.833 52.3333,111.167 53,117.5C 55.4722,125.111 58.9722,132.111 63.5,138.5C 54.975,130.512 50.6417,120.512 50.5,108.5C 50.8545,102.317 52.0212,96.3171 54,90.5C 55.2763,87.4006 57.1097,84.7339 59.5,82.5 Z"/></g>
<g><path style="opacity:1" fill="#916b9c" d="M 79.5,101.5 C 81.7224,101.178 83.5557,101.845 85,103.5C 87.6113,117.095 95.9446,123.762 110,123.5C 124.361,123.426 132.861,116.426 135.5,102.5C 139.732,100.477 142.065,101.81 142.5,106.5C 141.611,113.612 138.611,119.612 133.5,124.5C 117.744,133.995 102.077,133.828 86.5,124C 80.6434,118.789 77.6434,112.289 77.5,104.5C 78.1667,103.5 78.8333,102.5 79.5,101.5 Z"/></g>
<g><path style="opacity:1" fill="#d67fa7" d="M 79.5,101.5 C 80.9464,100.387 82.6131,100.22 84.5,101C 86.6168,104.547 88.1168,108.38 89,112.5C 93.1143,117.295 97.9476,120.295 103.5,121.5C 107.5,121.5 111.5,121.5 115.5,121.5C 116.748,120.96 117.915,120.293 119,119.5C 119.333,119.833 119.667,120.167 120,120.5C 124.302,117.497 128.136,114.33 131.5,111C 131.167,110.667 130.833,110.333 130.5,110C 132.074,108.174 132.907,106.007 133,103.5C 133.671,102.748 134.504,102.414 135.5,102.5C 132.861,116.426 124.361,123.426 110,123.5C 95.9446,123.762 87.6113,117.095 85,103.5C 83.5557,101.845 81.7224,101.178 79.5,101.5 Z"/></g>
<g><path style="opacity:1" fill="#db82a8" d="M 133.5,124.5 C 138.611,119.612 141.611,113.612 142.5,106.5C 142.065,101.81 139.732,100.477 135.5,102.5C 135.47,101.503 135.97,100.836 137,100.5C 138.422,99.7948 139.755,99.4615 141,99.5C 142.167,101.333 143.333,103.167 144.5,105C 143.811,109.733 142.311,114.233 140,118.5C 138.594,121.409 136.428,123.409 133.5,124.5 Z"/></g>
<g><path style="opacity:1" fill="#d67fa7" d="M 77.5,104.5 C 77.6434,112.289 80.6434,118.789 86.5,124C 102.077,133.828 117.744,133.995 133.5,124.5C 132.71,125.794 131.71,126.961 130.5,128C 118.065,134.185 105.065,134.518 91.5,129C 83.1548,124.664 77.8215,117.997 75.5,109C 76.0989,107.378 76.7656,105.878 77.5,104.5 Z"/></g>
<g><path style="opacity:1" fill="#d17da5" d="M 62.5,150.5 C 59.2689,148.78 56.4356,146.447 54,143.5C 53.6753,145.553 54.0087,147.553 55,149.5C 56.3218,152.965 57.8218,156.298 59.5,159.5C 54.34,153.525 51.84,146.525 52,138.5C 55.3362,142.668 58.8362,146.668 62.5,150.5 Z"/></g>
<g><path style="opacity:1" fill="#d07da5" d="M 166.5,147.5 C 166.381,145.817 166.048,144.15 165.5,142.5C 165.685,140.804 166.519,139.471 168,138.5C 168.576,141.772 168.076,144.772 166.5,147.5 Z"/></g>
<g><path style="opacity:1" fill="#eb799a" d="M 165.5,142.5 C 166.048,144.15 166.381,145.817 166.5,147.5C 164.215,150.731 162.215,154.731 160.5,159.5C 159.325,159.281 158.325,159.614 157.5,160.5C 156.323,163.531 154.656,166.198 152.5,168.5C 151.833,168.5 151.5,168.833 151.5,169.5C 145.735,171.911 140.068,175.244 134.5,179.5C 129.562,180.231 124.895,181.565 120.5,183.5C 119.5,182.167 118.5,182.167 117.5,183.5C 112.241,182.688 106.574,182.688 100.5,183.5C 98.8828,182.962 97.2161,182.629 95.5,182.5C 88.8407,180.053 82.174,177.386 75.5,174.5C 73.7446,173.928 72.0779,173.094 70.5,172C 66.1971,168.21 62.5305,164.043 59.5,159.5C 57.8218,156.298 56.3218,152.965 55,149.5C 54.0087,147.553 53.6753,145.553 54,143.5C 56.4356,146.447 59.2689,148.78 62.5,150.5C 69.4802,155.823 77.1468,159.823 85.5,162.5C 89.2492,164.364 93.2492,165.697 97.5,166.5C 98.172,167.267 99.0053,167.934 100,168.5C 102.728,168.754 105.562,168.421 108.5,167.5C 110.001,168.443 111.335,168.109 112.5,166.5C 114.121,166.213 115.121,165.213 115.5,163.5C 117.743,162.526 120.076,162.192 122.5,162.5C 122.263,163.791 122.596,164.791 123.5,165.5C 123.5,166.5 123.5,167.5 123.5,168.5C 127.281,170.12 130.281,169.12 132.5,165.5C 133.573,163.653 133.573,161.653 132.5,159.5C 133.397,158.402 134.23,158.402 135,159.5C 136.753,157.242 138.919,155.575 141.5,154.5C 142.167,155.833 143.167,156.833 144.5,157.5C 144.908,158.643 145.575,159.643 146.5,160.5C 148.451,161.256 150.284,161.589 152,161.5C 153.023,160.4 153.523,159.067 153.5,157.5C 153.114,155.068 152.447,152.734 151.5,150.5C 153.077,148.416 154.91,146.416 157,144.5C 159.17,146.828 161.337,146.828 163.5,144.5C 164.167,143.833 164.833,143.167 165.5,142.5 Z"/></g>
<g><path style="opacity:1" fill="#da81a8" d="M 147.5,145.5 C 142.557,143.612 140.39,145.279 141,150.5C 142.705,152.577 143.872,154.91 144.5,157.5C 143.167,156.833 142.167,155.833 141.5,154.5C 140.513,152.527 139.513,150.527 138.5,148.5C 139.467,146.37 140.634,144.37 142,142.5C 143.399,142.501 144.899,142.835 146.5,143.5C 147.298,143.957 147.631,144.624 147.5,145.5 Z"/></g>
<g><path style="opacity:1" fill="#946c9b" d="M 147.5,145.5 C 148.604,147.389 149.937,149.055 151.5,150.5C 152.447,152.734 153.114,155.068 153.5,157.5C 153.523,159.067 153.023,160.4 152,161.5C 150.284,161.589 148.451,161.256 146.5,160.5C 145.575,159.643 144.908,158.643 144.5,157.5C 143.872,154.91 142.705,152.577 141,150.5C 140.39,145.279 142.557,143.612 147.5,145.5 Z"/></g>
<g><path style="opacity:1" fill="#d880a7" d="M 65.5,140.5 C 72.0617,145.704 79.2284,150.037 87,153.5C 88.5252,153.888 90.1918,153.888 92,153.5C 92.3333,154.167 92.6667,154.833 93,155.5C 94,155.167 95,154.833 96,154.5C 96.3333,155.167 96.6667,155.833 97,156.5C 101.602,156.734 105.936,156.734 110,156.5C 111.518,157.163 112.685,158.163 113.5,159.5C 110.236,158.676 106.902,158.342 103.5,158.5C 88.4471,157.274 75.7805,151.274 65.5,140.5 Z"/></g>
<g><path style="opacity:1" fill="#8c719f" d="M 83.5,188.5 C 60.658,179.801 46.9913,163.468 42.5,139.5C 43.1174,139.389 43.6174,139.056 44,138.5C 44.4935,140.134 44.6602,141.801 44.5,143.5C 47.5983,143.413 47.9316,143.913 45.5,145C 45.8881,146.808 45.8881,148.475 45.5,150C 54.7525,155.944 62.2525,164.111 68,174.5C 69.3988,175.227 70.8988,175.727 72.5,176C 74.539,178.374 76.8723,180.374 79.5,182C 80.9281,184.132 82.2614,186.299 83.5,188.5 Z"/></g>
<g><path style="opacity:1" fill="#d47fa6" d="M 124.5,152.5 C 125.946,151.387 127.613,151.22 129.5,152C 130.991,154.308 131.991,156.808 132.5,159.5C 133.573,161.653 133.573,163.653 132.5,165.5C 131.646,161.417 130.479,157.417 129,153.5C 127.644,152.62 126.144,152.286 124.5,152.5 Z"/></g>
<g><path style="opacity:1" fill="#d17da5" d="M 166.5,147.5 C 165.54,152.086 163.54,156.086 160.5,159.5C 162.215,154.731 164.215,150.731 166.5,147.5 Z"/></g>
<g><path style="opacity:1" fill="#936b9b" d="M 124.5,152.5 C 126.144,152.286 127.644,152.62 129,153.5C 130.479,157.417 131.646,161.417 132.5,165.5C 130.281,169.12 127.281,170.12 123.5,168.5C 123.5,167.5 123.5,166.5 123.5,165.5C 123.308,162.399 122.642,159.399 121.5,156.5C 122.035,154.739 123.035,153.406 124.5,152.5 Z"/></g>
<g><path style="opacity:1" fill="#a56a97" d="M 103.5,158.5 C 106.902,158.342 110.236,158.676 113.5,159.5C 114.687,161.975 114.353,164.309 112.5,166.5C 111.335,168.109 110.001,168.443 108.5,167.5C 105.038,166.518 101.371,166.185 97.5,166.5C 93.2492,165.697 89.2492,164.364 85.5,162.5C 90.4155,163.196 95.2488,164.196 100,165.5C 103.423,165.105 107.256,164.938 111.5,165C 112.747,163.506 112.747,162.006 111.5,160.5C 108.915,160.241 106.248,159.575 103.5,158.5 Z"/></g>
<g><path style="opacity:1" fill="#cd7ba4" d="M 160.5,159.5 C 158.969,163.597 156.303,166.597 152.5,168.5C 154.656,166.198 156.323,163.531 157.5,160.5C 158.325,159.614 159.325,159.281 160.5,159.5 Z"/></g>
<g><path style="opacity:1" fill="#ce7ca4" d="M 97.5,166.5 C 101.371,166.185 105.038,166.518 108.5,167.5C 105.562,168.421 102.728,168.754 100,168.5C 99.0053,167.934 98.172,167.267 97.5,166.5 Z"/></g>
<g><path style="opacity:1" fill="#ce7ca4" d="M 151.5,169.5 C 147.186,173.324 142.519,176.657 137.5,179.5C 136.5,179.5 135.5,179.5 134.5,179.5C 140.068,175.244 145.735,171.911 151.5,169.5 Z"/></g>
<g><path style="opacity:1" fill="#d17da5" d="M 75.5,174.5 C 82.174,177.386 88.8407,180.053 95.5,182.5C 92.7294,182.579 90.0627,182.079 87.5,181C 82.9901,179.582 78.9901,177.415 75.5,174.5 Z"/></g>
<g><path style="opacity:1" fill="#ce7ca4" d="M 134.5,179.5 C 130.195,181.746 125.529,183.08 120.5,183.5C 124.895,181.565 129.562,180.231 134.5,179.5 Z"/></g>
<g><path style="opacity:1" fill="#c778a2" d="M 117.5,183.5 C 112.695,184.487 107.695,184.821 102.5,184.5C 101.508,184.672 100.842,184.338 100.5,183.5C 106.574,182.688 112.241,182.688 117.5,183.5 Z"/></g>
<g><path style="opacity:1" fill="#a06896" d="M 134.5,179.5 C 135.5,179.5 136.5,179.5 137.5,179.5C 132.05,182.373 126.217,184.373 120,185.5C 119.667,185.167 119.333,184.833 119,184.5C 114.149,185.943 109.816,186.61 106,186.5C 104.698,185.915 103.531,185.249 102.5,184.5C 107.695,184.821 112.695,184.487 117.5,183.5C 118.5,182.167 119.5,182.167 120.5,183.5C 125.529,183.08 130.195,181.746 134.5,179.5 Z"/></g>
<g><path style="opacity:1" fill="#89759e" d="M 273.5,172.5 C 278.855,175.342 283.522,179.175 287.5,184C 291.924,186.088 295.424,189.255 298,193.5C 297.476,190.419 296.309,187.419 294.5,184.5C 294.624,183.893 294.957,183.56 295.5,183.5C 295.833,183.5 296.167,183.5 296.5,183.5C 300.977,191.599 303.644,200.265 304.5,209.5C 303.59,207.981 302.757,206.315 302,204.5C 301.333,205.833 300.667,205.833 300,204.5C 300,202.5 300,200.5 300,198.5C 298.333,196.833 296.667,195.167 295,193.5C 294.505,195.473 294.338,197.473 294.5,199.5C 292.291,194.732 289.791,190.066 287,185.5C 282.605,180.936 278.105,176.602 273.5,172.5 Z"/></g>
<g><path style="opacity:1" fill="#fefefe" d="M -0.5,180.5 C 0.327935,186.653 0.827935,192.987 1,199.5C 2.9594,205.626 4.29273,211.96 5,218.5C 28.8796,292.532 79.3796,335.532 156.5,347.5C 104.167,347.5 51.8333,347.5 -0.5,347.5C -0.5,291.833 -0.5,236.167 -0.5,180.5 Z"/></g>
<g><path style="opacity:1" fill="#fefefe" d="M 347.5,191.5 C 347.5,243.5 347.5,295.5 347.5,347.5C 295.5,347.5 243.5,347.5 191.5,347.5C 279.843,331.823 331.843,279.823 347.5,191.5 Z"/></g>
<g><path style="opacity:1" fill="#e3dbf7" d="M 296.5,183.5 C 297.885,184.574 299.051,185.907 300,187.5C 301.076,190.648 302.409,193.648 304,196.5C 306.455,211.731 307.121,227.064 306,242.5C 304.65,252.55 301.317,261.883 296,270.5C 295.241,272.063 294.074,273.063 292.5,273.5C 297.066,266.74 300.566,259.407 303,251.5C 304.388,237.545 304.888,223.545 304.5,209.5C 303.644,200.265 300.977,191.599 296.5,183.5 Z"/></g>
<g><path style="opacity:1" fill="#8c6f9e" d="M 295.5,183.5 C 294.957,183.56 294.624,183.893 294.5,184.5C 296.309,187.419 297.476,190.419 298,193.5C 295.424,189.255 291.924,186.088 287.5,184C 283.522,179.175 278.855,175.342 273.5,172.5C 267.526,169.848 261.526,167.181 255.5,164.5C 244.224,160.168 232.89,159.835 221.5,163.5C 219.5,164.167 217.5,164.833 215.5,165.5C 212.423,165.179 210.09,166.179 208.5,168.5C 205.386,169.709 202.719,171.376 200.5,173.5C 198.716,173.893 197.05,174.559 195.5,175.5C 190.752,177.913 187.419,181.58 185.5,186.5C 184.89,187.391 184.557,188.391 184.5,189.5C 181.45,193.613 179.45,198.28 178.5,203.5C 177.268,210.024 177.268,216.691 178.5,223.5C 179.364,228.676 180.864,233.676 183,238.5C 186.305,242.141 189.638,245.808 193,249.5C 194.566,248.939 195.899,249.606 197,251.5C 197.383,250.944 197.883,250.611 198.5,250.5C 198.5,250.833 198.5,251.167 198.5,251.5C 202.24,253.794 205.74,256.46 209,259.5C 210.297,258.216 211.464,258.383 212.5,260C 214.81,260.497 217.143,260.663 219.5,260.5C 221.117,261.038 222.784,261.371 224.5,261.5C 229.148,262.336 233.814,263.336 238.5,264.5C 242.362,263.917 246.029,262.917 249.5,261.5C 249.5,261.167 249.5,260.833 249.5,260.5C 253.479,260.258 257.146,259.258 260.5,257.5C 260.833,257.5 261.167,257.5 261.5,257.5C 268.233,255.299 274.233,251.799 279.5,247C 283.121,243.559 286.121,239.726 288.5,235.5C 296.14,224.538 298.14,212.538 294.5,199.5C 294.338,197.473 294.505,195.473 295,193.5C 296.667,195.167 298.333,196.833 300,198.5C 300,200.5 300,202.5 300,204.5C 300.667,205.833 301.333,205.833 302,204.5C 302.757,206.315 303.59,207.981 304.5,209.5C 304.888,223.545 304.388,237.545 303,251.5C 300.566,259.407 297.066,266.74 292.5,273.5C 266.901,299.093 237.235,304.927 203.5,291C 182.922,280.337 171.422,263.504 169,240.5C 168.333,229.833 168.333,219.167 169,208.5C 172.298,186.747 183.798,170.913 203.5,161C 234.982,148.113 263.482,152.613 289,174.5C 291.385,177.379 293.552,180.379 295.5,183.5 Z"/></g>
<g><path style="opacity:1" fill="#817d9a" d="M 179.5,251.5 C 182.308,257.783 185.642,263.783 189.5,269.5C 187.37,268.968 185.37,268.135 183.5,267C 183.833,266.667 184.167,266.333 184.5,266C 181.405,261.749 179.739,256.916 179.5,251.5 Z"/></g>
<g><path style="opacity:1" fill="#a1cfc1" d="M 195.5,247.5 C 200.915,250.512 206.248,253.512 211.5,256.5C 207.026,255.092 202.693,253.425 198.5,251.5C 198.5,251.167 198.5,250.833 198.5,250.5C 197.306,249.728 196.306,248.728 195.5,247.5 Z"/></g>
<g><path style="opacity:1" fill="#9dc9bd" d="M 288.5,235.5 C 286.121,239.726 283.121,243.559 279.5,247C 274.233,251.799 268.233,255.299 261.5,257.5C 261.369,256.624 261.702,255.957 262.5,255.5C 272.289,251.54 280.123,245.207 286,236.5C 286.671,235.748 287.504,235.414 288.5,235.5 Z"/></g>
<g><path style="opacity:1" fill="#5fba9e" d="M 181.5,245.5 C 183.167,247.5 184.833,249.5 186.5,251.5C 189.645,257.076 194.312,260.743 200.5,262.5C 201.167,262.5 201.833,262.5 202.5,262.5C 209.552,266.74 217.218,269.407 225.5,270.5C 226.172,271.267 227.005,271.934 228,272.5C 230.333,272.5 232.667,272.5 235,272.5C 235.995,271.934 236.828,271.267 237.5,270.5C 237.833,270.5 238.167,270.5 238.5,270.5C 239.625,271.014 240.791,271.347 242,271.5C 246.389,270.325 250.889,269.659 255.5,269.5C 261.958,268.595 268.292,266.262 274.5,262.5C 275.425,261.643 276.092,260.643 276.5,259.5C 278.027,259.573 279.027,258.906 279.5,257.5C 281.354,256.759 283.021,255.759 284.5,254.5C 287.394,253.118 289.894,251.118 292,248.5C 292.139,251.575 291.639,254.575 290.5,257.5C 289.453,261.261 287.619,264.594 285,267.5C 281.271,271.398 277.438,275.065 273.5,278.5C 272.778,279.551 271.778,280.218 270.5,280.5C 262.042,284.866 253.042,287.533 243.5,288.5C 243.565,288.062 243.399,287.728 243,287.5C 239.065,288.138 235.231,288.804 231.5,289.5C 225.495,288.298 219.495,286.965 213.5,285.5C 210.201,282.225 206.201,280.225 201.5,279.5C 199.736,277.879 197.736,276.546 195.5,275.5C 193.882,273.215 191.882,271.215 189.5,269.5C 185.642,263.783 182.308,257.783 179.5,251.5C 179.5,251.167 179.5,250.833 179.5,250.5C 179.714,248.856 179.38,247.356 178.5,246C 179.448,245.517 180.448,245.351 181.5,245.5 Z"/></g>
<g><path style="opacity:1" fill="#7d8098" d="M 202.5,262.5 C 208.487,263.575 214.154,265.408 219.5,268C 223.5,268.333 227.5,268.667 231.5,269C 232.056,269.383 232.389,269.883 232.5,270.5C 230.477,270.715 228.144,270.715 225.5,270.5C 217.218,269.407 209.552,266.74 202.5,262.5 Z"/></g>
<g><path style="opacity:1" fill="#84759a" d="M 224.5,261.5 C 232.819,262.573 241.152,262.573 249.5,261.5C 246.029,262.917 242.362,263.917 238.5,264.5C 233.814,263.336 229.148,262.336 224.5,261.5 Z"/></g>
<g><path style="opacity:1" fill="#74a5a2" d="M 276.5,259.5 C 276.092,260.643 275.425,261.643 274.5,262.5C 268.292,266.262 261.958,268.595 255.5,269.5C 256.167,268.833 256.833,268.167 257.5,267.5C 264.03,265.215 270.364,262.548 276.5,259.5 Z"/></g>
<g><path style="opacity:1" fill="#9dc8bd" d="M 211.5,256.5 C 216.758,257.776 221.758,258.943 226.5,260C 234.159,260.5 241.826,260.666 249.5,260.5C 249.5,260.833 249.5,261.167 249.5,261.5C 241.152,262.573 232.819,262.573 224.5,261.5C 222.784,261.371 221.117,261.038 219.5,260.5C 216.431,260.015 213.764,258.681 211.5,256.5 Z"/></g>
<g><path style="opacity:1" fill="#7c919e" d="M 279.5,257.5 C 279.027,258.906 278.027,259.573 276.5,259.5C 276.973,258.094 277.973,257.427 279.5,257.5 Z"/></g>
<g><path style="opacity:1" fill="#9dc8bd" d="M 260.5,257.5 C 257.146,259.258 253.479,260.258 249.5,260.5C 251.981,259.242 254.481,257.908 257,256.5C 258.011,257.337 259.178,257.67 260.5,257.5 Z"/></g>
<g><path style="opacity:1" fill="#837399" d="M 198.5,251.5 C 202.693,253.425 207.026,255.092 211.5,256.5C 213.764,258.681 216.431,260.015 219.5,260.5C 217.143,260.663 214.81,260.497 212.5,260C 211.464,258.383 210.297,258.216 209,259.5C 205.74,256.46 202.24,253.794 198.5,251.5 Z"/></g>
<g><path style="opacity:1" fill="#817899" d="M 202.5,262.5 C 201.833,262.5 201.167,262.5 200.5,262.5C 198.07,260.947 196.07,258.947 194.5,256.5C 195.117,256.389 195.617,256.056 196,255.5C 197.752,258.412 199.918,260.745 202.5,262.5 Z"/></g>
<g><path style="opacity:1" fill="#74a6a2" d="M 186.5,251.5 C 189.22,253.248 191.886,254.914 194.5,256.5C 196.07,258.947 198.07,260.947 200.5,262.5C 194.312,260.743 189.645,257.076 186.5,251.5 Z"/></g>
<g><path style="opacity:1" fill="#73a8a2" d="M 293.5,253.5 C 292.5,254.833 291.5,256.167 290.5,257.5C 291.639,254.575 292.139,251.575 292,248.5C 289.894,251.118 287.394,253.118 284.5,254.5C 288.485,250.669 291.985,246.336 295,241.5C 295.666,245.666 295.166,249.666 293.5,253.5 Z"/></g>
<g><path style="opacity:1" fill="#7b8e9c" d="M 181.5,245.5 C 180.448,245.351 179.448,245.517 178.5,246C 179.38,247.356 179.714,248.856 179.5,250.5C 177.621,248.085 177.287,245.418 178.5,242.5C 179.855,243.188 180.855,244.188 181.5,245.5 Z"/></g>
<g><path style="opacity:1" fill="#a0cdc0" d="M 182.5,231.5 C 186.812,236.754 191.145,242.088 195.5,247.5C 193.207,245.388 190.707,243.388 188,241.5C 185.938,238.277 184.104,234.943 182.5,231.5 Z"/></g>
<g><path style="opacity:1" fill="#83769a" d="M 178.5,223.5 C 179.833,226.167 181.167,228.833 182.5,231.5C 184.104,234.943 185.938,238.277 188,241.5C 190.707,243.388 193.207,245.388 195.5,247.5C 196.306,248.728 197.306,249.728 198.5,250.5C 197.883,250.611 197.383,250.944 197,251.5C 195.899,249.606 194.566,248.939 193,249.5C 189.638,245.808 186.305,242.141 183,238.5C 180.864,233.676 179.364,228.676 178.5,223.5 Z"/></g>
<g><path style="opacity:1" fill="#9ac3bb" d="M 178.5,203.5 C 178.5,206.5 178.5,209.5 178.5,212.5C 179.735,218.931 181.069,225.264 182.5,231.5C 181.167,228.833 179.833,226.167 178.5,223.5C 177.268,216.691 177.268,210.024 178.5,203.5 Z"/></g>
<g><path style="opacity:1" fill="#a0cec0" d="M 184.5,189.5 C 181.539,196.957 179.539,204.623 178.5,212.5C 178.5,209.5 178.5,206.5 178.5,203.5C 179.45,198.28 181.45,193.613 184.5,189.5 Z"/></g>
<g><path style="opacity:1" fill="#9ecabf" d="M 188.5,184.5 C 187.864,186.795 186.531,188.461 184.5,189.5C 184.557,188.391 184.89,187.391 185.5,186.5C 186.5,185.833 187.5,185.167 188.5,184.5 Z"/></g>
<g><path style="opacity:1" fill="#7d7c98" d="M 195.5,175.5 C 193.478,177.531 191.811,179.865 190.5,182.5C 189.5,182.833 188.833,183.5 188.5,184.5C 187.5,185.167 186.5,185.833 185.5,186.5C 187.419,181.58 190.752,177.913 195.5,175.5 Z"/></g>
<g><path style="opacity:1" fill="#9cc8bd" d="M 200.5,173.5 C 198.004,177.417 194.67,180.417 190.5,182.5C 191.811,179.865 193.478,177.531 195.5,175.5C 197.05,174.559 198.716,173.893 200.5,173.5 Z"/></g>
<g><path style="opacity:1" fill="#9ec9be" d="M 255.5,164.5 C 261.526,167.181 267.526,169.848 273.5,172.5C 278.105,176.602 282.605,180.936 287,185.5C 289.791,190.066 292.291,194.732 294.5,199.5C 298.14,212.538 296.14,224.538 288.5,235.5C 299.739,209.931 293.739,189.098 270.5,173C 253.174,163.79 235.34,161.624 217,166.5C 212.661,167.692 208.828,169.692 205.5,172.5C 203.955,173.452 202.288,173.785 200.5,173.5C 202.719,171.376 205.386,169.709 208.5,168.5C 210.987,167.677 213.321,166.677 215.5,165.5C 217.5,164.833 219.5,164.167 221.5,163.5C 232.89,162.004 244.223,162.337 255.5,164.5 Z"/></g>
<g><path style="opacity:1" fill="#7f809a" d="M 215.5,165.5 C 213.321,166.677 210.987,167.677 208.5,168.5C 210.09,166.179 212.423,165.179 215.5,165.5 Z"/></g>
<g><path style="opacity:1" fill="#98dfbb" d="M 288.5,235.5 C 287.504,235.414 286.671,235.748 286,236.5C 280.123,245.207 272.289,251.54 262.5,255.5C 261.702,255.957 261.369,256.624 261.5,257.5C 261.167,257.5 260.833,257.5 260.5,257.5C 259.178,257.67 258.011,257.337 257,256.5C 254.481,257.908 251.981,259.242 249.5,260.5C 241.826,260.666 234.159,260.5 226.5,260C 221.758,258.943 216.758,257.776 211.5,256.5C 206.248,253.512 200.915,250.512 195.5,247.5C 191.145,242.088 186.812,236.754 182.5,231.5C 181.069,225.264 179.735,218.931 178.5,212.5C 179.539,204.623 181.539,196.957 184.5,189.5C 186.531,188.461 187.864,186.795 188.5,184.5C 188.833,183.5 189.5,182.833 190.5,182.5C 194.67,180.417 198.004,177.417 200.5,173.5C 202.288,173.785 203.955,173.452 205.5,172.5C 208.828,169.692 212.661,167.692 217,166.5C 235.34,161.624 253.174,163.79 270.5,173C 293.739,189.098 299.739,209.931 288.5,235.5 Z"/></g>
<g><path style="opacity:1" fill="#9cc7bd" d="M 266.5,184.5 C 270.107,185.946 272.607,188.612 274,192.5C 274.667,197.833 274.667,203.167 274,208.5C 265.523,222.642 254.023,233.809 239.5,242C 237.5,242.667 235.5,242.667 233.5,242C 225.64,237.233 218.307,231.733 211.5,225.5C 210.048,224.06 209.048,222.394 208.5,220.5C 209.167,220.833 209.833,221.167 210.5,221.5C 212.9,224.903 215.9,227.57 219.5,229.5C 222.597,232.888 226.264,235.555 230.5,237.5C 233.973,242.019 237.64,242.353 241.5,238.5C 253.365,231.806 263.198,222.806 271,211.5C 275.562,201.318 274.062,192.318 266.5,184.5 Z"/></g>
<g><path style="opacity:1" fill="#7d7c97" d="M 230.5,237.5 C 232.84,238.086 235.007,239.086 237,240.5C 238.11,238.963 239.61,238.297 241.5,238.5C 237.64,242.353 233.973,242.019 230.5,237.5 Z"/></g>
<g><path style="opacity:1" fill="#7d8098" d="M 210.5,221.5 C 214.1,223.43 217.1,226.097 219.5,229.5C 215.9,227.57 212.9,224.903 210.5,221.5 Z"/></g>
<g><path style="opacity:1" fill="#9cc6bc" d="M 201.5,209.5 C 203.647,213.254 205.98,216.92 208.5,220.5C 205.909,219.746 204.076,218.079 203,215.5C 201.872,213.655 201.372,211.655 201.5,209.5 Z"/></g>
<g><path style="opacity:1" fill="#9fcbbf" d="M 204.5,186.5 C 203.609,188.609 202.442,190.609 201,192.5C 199.066,197.897 199.232,203.23 201.5,208.5C 200.685,207.571 199.852,206.571 199,205.5C 198.636,201.133 198.47,196.966 198.5,193C 199.84,190.14 201.84,187.973 204.5,186.5 Z"/></g>
<g><path style="opacity:1" fill="#896f9c" d="M 239.5,184.5 C 241.027,184.573 242.027,183.906 242.5,182.5C 243.167,182.5 243.833,182.5 244.5,182.5C 250.44,181.374 256.106,181.374 261.5,182.5C 262.167,182.5 262.833,182.5 263.5,182.5C 263.973,183.906 264.973,184.573 266.5,184.5C 274.062,192.318 275.562,201.318 271,211.5C 263.198,222.806 253.365,231.806 241.5,238.5C 239.61,238.297 238.11,238.963 237,240.5C 235.007,239.086 232.84,238.086 230.5,237.5C 226.264,235.555 222.597,232.888 219.5,229.5C 217.1,226.097 214.1,223.43 210.5,221.5C 209.833,221.167 209.167,220.833 208.5,220.5C 205.98,216.92 203.647,213.254 201.5,209.5C 201.5,209.167 201.5,208.833 201.5,208.5C 199.232,203.23 199.066,197.897 201,192.5C 202.442,190.609 203.609,188.609 204.5,186.5C 215.513,178.198 226.18,178.532 236.5,187.5C 237.855,186.812 238.855,185.812 239.5,184.5 Z"/></g>
<g><path style="opacity:1" fill="#838c9f" d="M 230.5,227.5 C 233.196,229.85 236.196,230.516 239.5,229.5C 239.175,231.132 238.175,232.132 236.5,232.5C 233.838,231.512 231.838,229.845 230.5,227.5 Z"/></g>
<g><path style="opacity:1" fill="#8196a2" d="M 248.5,223.5 C 246.704,225.9 244.37,227.567 241.5,228.5C 243.296,226.1 245.63,224.433 248.5,223.5 Z"/></g>
<g><path style="opacity:1" fill="#85a1a8" d="M 224.5,222.5 C 226.754,223.124 228.421,224.457 229.5,226.5C 226.796,226.33 225.129,224.997 224.5,222.5 Z"/></g>
<g><path style="opacity:1" fill="#7f98a2" d="M 219.5,218.5 C 221.389,219.604 223.055,220.937 224.5,222.5C 221.796,222.33 220.129,220.997 219.5,218.5 Z"/></g>
<g><path style="opacity:1" fill="#839ba5" d="M 262.5,207.5 C 259.633,214.37 254.966,219.703 248.5,223.5C 253.517,218.483 258.183,213.149 262.5,207.5 Z"/></g>
<g><path style="opacity:1" fill="#8393a2" d="M 210.5,194.5 C 209.508,197.779 209.341,201.112 210,204.5C 212.606,209.595 215.772,214.262 219.5,218.5C 216.254,216.687 213.421,214.353 211,211.5C 209.081,207.91 207.914,204.077 207.5,200C 207.613,197.601 208.613,195.768 210.5,194.5 Z"/></g>
<g><path style="opacity:1" fill="#87a5ab" d="M 258.5,190.5 C 259.5,190.5 260.5,190.5 261.5,190.5C 263.783,193.236 265.116,196.403 265.5,200C 265.607,202.221 264.94,204.054 263.5,205.5C 264.008,202.824 264.175,200.157 264,197.5C 262.629,194.734 260.796,192.401 258.5,190.5 Z"/></g>
<g><path style="opacity:1" fill="#73c9af" d="M 224.5,189.5 C 227.833,192.167 230.833,195.167 233.5,198.5C 234.172,199.267 235.005,199.934 236,200.5C 236.399,200.272 236.565,199.938 236.5,199.5C 236.833,199.5 237.167,199.5 237.5,199.5C 237.435,199.938 237.601,200.272 238,200.5C 241.414,196.277 245.247,192.611 249.5,189.5C 251.833,190.833 254.167,190.833 256.5,189.5C 256.842,190.338 257.508,190.672 258.5,190.5C 260.796,192.401 262.629,194.734 264,197.5C 264.175,200.157 264.008,202.824 263.5,205.5C 263.672,206.492 263.338,207.158 262.5,207.5C 258.183,213.149 253.517,218.483 248.5,223.5C 245.63,224.433 243.296,226.1 241.5,228.5C 240.508,228.328 239.842,228.662 239.5,229.5C 236.196,230.516 233.196,229.85 230.5,227.5C 229.833,227.5 229.5,227.167 229.5,226.5C 228.421,224.457 226.754,223.124 224.5,222.5C 223.055,220.937 221.389,219.604 219.5,218.5C 215.772,214.262 212.606,209.595 210,204.5C 209.341,201.112 209.508,197.779 210.5,194.5C 212.713,192.472 215.213,190.805 218,189.5C 220.115,190.598 222.282,190.598 224.5,189.5 Z"/></g>
<g><path style="opacity:1" fill="#85a5aa" d="M 233.5,198.5 C 234.791,198.263 235.791,198.596 236.5,199.5C 236.565,199.938 236.399,200.272 236,200.5C 235.005,199.934 234.172,199.267 233.5,198.5 Z"/></g>
<g><path style="opacity:1" fill="#87a4aa" d="M 249.5,189.5 C 245.247,192.611 241.414,196.277 238,200.5C 237.601,200.272 237.435,199.938 237.5,199.5C 239.666,197.163 241.666,194.663 243.5,192C 245.217,190.441 247.217,189.608 249.5,189.5 Z"/></g>
<g><path style="opacity:1" fill="#8495a3" d="M 224.5,189.5 C 229.393,190.392 232.393,193.392 233.5,198.5C 230.833,195.167 227.833,192.167 224.5,189.5 Z"/></g>
<g><path style="opacity:1" fill="#7f809a" d="M 256.5,188.5 C 258.553,188.402 260.22,189.069 261.5,190.5C 260.5,190.5 259.5,190.5 258.5,190.5C 257.508,190.672 256.842,190.338 256.5,189.5C 256.5,189.167 256.5,188.833 256.5,188.5 Z"/></g>
<g><path style="opacity:1" fill="#829ea6" d="M 249.5,189.5 C 251.607,188.532 253.941,188.198 256.5,188.5C 256.5,188.833 256.5,189.167 256.5,189.5C 254.167,190.833 251.833,190.833 249.5,189.5 Z"/></g>
<g><path style="opacity:1" fill="#86a2a9" d="M 224.5,189.5 C 222.282,190.598 220.115,190.598 218,189.5C 215.213,190.805 212.713,192.472 210.5,194.5C 212.237,190.117 215.57,188.117 220.5,188.5C 222.045,188.511 223.378,188.844 224.5,189.5 Z"/></g>
<g><path style="opacity:1" fill="#9ec8be" d="M 239.5,184.5 C 238.855,185.812 237.855,186.812 236.5,187.5C 226.18,178.532 215.513,178.198 204.5,186.5C 204.511,184.983 205.177,183.816 206.5,183C 209.477,181.682 212.31,180.182 215,178.5C 219.08,179.3 223.247,179.8 227.5,180C 230.29,180.561 232.623,181.894 234.5,184C 236.134,184.494 237.801,184.66 239.5,184.5 Z"/></g>
<g><path style="opacity:1" fill="#9dc6bd" d="M 263.5,182.5 C 262.833,182.5 262.167,182.5 261.5,182.5C 261.082,181.778 260.416,181.278 259.5,181C 255.167,180.333 250.833,180.333 246.5,181C 245.584,181.278 244.918,181.778 244.5,182.5C 243.833,182.5 243.167,182.5 242.5,182.5C 243.641,180.912 245.141,179.579 247,178.5C 250.633,178.483 254.467,178.65 258.5,179C 260.76,179.549 262.426,180.716 263.5,182.5 Z"/></g>
<g><path style="opacity:1" fill="#7d7a97" d="M 261.5,182.5 C 256.106,181.374 250.44,181.374 244.5,182.5C 244.918,181.778 245.584,181.278 246.5,181C 250.833,180.333 255.167,180.333 259.5,181C 260.416,181.278 261.082,181.778 261.5,182.5 Z"/></g>
<g><path style="opacity:1" fill="#7f7a98" d="M 255.5,164.5 C 244.223,162.337 232.89,162.004 221.5,163.5C 232.89,159.835 244.224,160.168 255.5,164.5 Z"/></g>
<g><path style="opacity:1" fill="#7d839a" d="M 257.5,267.5 C 256.833,268.167 256.167,268.833 255.5,269.5C 250.889,269.659 246.389,270.325 242,271.5C 240.791,271.347 239.625,271.014 238.5,270.5C 244.605,268.898 250.938,267.898 257.5,267.5 Z"/></g>
<g><path style="opacity:1" fill="#7d839a" d="M 293.5,253.5 C 291.155,262.365 286.489,269.865 279.5,276C 277.372,276.655 275.372,277.489 273.5,278.5C 277.438,275.065 281.271,271.398 285,267.5C 287.619,264.594 289.453,261.261 290.5,257.5C 291.5,256.167 292.5,254.833 293.5,253.5 Z"/></g>
<g><path style="opacity:1" fill="#7c7f98" d="M 189.5,269.5 C 191.882,271.215 193.882,273.215 195.5,275.5C 192.5,274.5 190.5,272.5 189.5,269.5 Z"/></g>
<g><path style="opacity:1" fill="#71aba3" d="M 237.5,270.5 C 236.828,271.267 235.995,271.934 235,272.5C 232.667,272.5 230.333,272.5 228,272.5C 227.005,271.934 226.172,271.267 225.5,270.5C 228.144,270.715 230.477,270.715 232.5,270.5C 234.194,270.446 235.86,270.446 237.5,270.5 Z"/></g>
<g><path style="opacity:1" fill="#769fa1" d="M 201.5,279.5 C 206.201,280.225 210.201,282.225 213.5,285.5C 208.914,284.54 204.914,282.54 201.5,279.5 Z"/></g>
<g><path style="opacity:1" fill="#7d7c98" d="M 270.5,280.5 C 268.335,282.793 265.669,284.627 262.5,286C 249.439,290.873 236.439,292.206 223.5,290C 219.683,289.295 216.35,287.795 213.5,285.5C 219.495,286.965 225.495,288.298 231.5,289.5C 235.702,289.817 239.702,289.483 243.5,288.5C 253.042,287.533 262.042,284.866 270.5,280.5 Z"/></g>
<g><path style="opacity:1" fill="#73aba4" d="M 243.5,288.5 C 239.702,289.483 235.702,289.817 231.5,289.5C 235.231,288.804 239.065,288.138 243,287.5C 243.399,287.728 243.565,288.062 243.5,288.5 Z"/></g>
</svg>
